/* XPM */
static char * gedit_icon_xpm[] = {
"32 32 118 2",
"  	c None",
". 	c #131313",
"+ 	c #6B6B6B",
"@ 	c #8C8C8C",
"# 	c #747474",
"$ 	c #0C0402",
"% 	c #444444",
"& 	c #4B4B4B",
"* 	c #646464",
"= 	c #545454",
"- 	c #EBEBEB",
"; 	c #1C1C1C",
"> 	c #C3C3C3",
", 	c #A5A5A5",
"' 	c #0D0D0D",
") 	c #CCCCCB",
"! 	c #5B5B5B",
"~ 	c #9D9D9D",
"{ 	c #969696",
"] 	c #ACACAC",
"^ 	c #7B7B7B",
"/ 	c #3C3C3C",
"( 	c #292929",
"_ 	c #B4B4B4",
": 	c #E3E4E4",
"< 	c #000000",
"[ 	c #DBDBDB",
"} 	c #252525",
"| 	c #313131",
"1 	c #D4D4D4",
"2 	c #858585",
"3 	c #BCBCBC",
"4 	c #F9F9F9",
"5 	c #F3F3F3",
"6 	c #341812",
"7 	c #482A26",
"8 	c #26110D",
"9 	c #33120B",
"0 	c #B34D3C",
"a 	c #E09487",
"b 	c #C48E85",
"c 	c #714841",
"d 	c #342C29",
"e 	c #2C100C",
"f 	c #913425",
"g 	c #BB5646",
"h 	c #D48B81",
"i 	c #CEC3B8",
"j 	c #B3B0AB",
"k 	c #8D8469",
"l 	c #948981",
"m 	c #4E1910",
"n 	c #95554B",
"o 	c #CFC195",
"p 	c #ECDBAA",
"q 	c #D7C798",
"r 	c #E8E3D5",
"s 	c #5B332B",
"t 	c #766343",
"u 	c #B18325",
"v 	c #C7A551",
"w 	c #DFC884",
"x 	c #EEDCA7",
"y 	c #EEE2C1",
"z 	c #3C2806",
"A 	c #A47115",
"B 	c #B58628",
"C 	c #C5A24C",
"D 	c #E6D6A4",
"E 	c #EEDEB3",
"F 	c #DED1AC",
"G 	c #D8D2BF",
"H 	c #080500",
"I 	c #8D6112",
"J 	c #A97416",
"K 	c #DDC682",
"L 	c #F0E1B2",
"M 	c #D3CCB6",
"N 	c #1D1403",
"O 	c #A97618",
"P 	c #BA8C2C",
"Q 	c #DFCA89",
"R 	c #EEE1BB",
"S 	c #E1D5B2",
"T 	c #E4E2DE",
"U 	c #0A0701",
"V 	c #704D0E",
"W 	c #AE7B1C",
"X 	c #F1E5BE",
"Y 	c #D5CAA8",
"Z 	c #39362C",
"` 	c #211703",
" .	c #AD9A64",
"..	c #605133",
"+.	c #231904",
"@.	c #593E0A",
"#.	c #926615",
"$.	c #B5801D",
"%.	c #C9A650",
"&.	c #DCC47A",
"*.	c #DFC9A8",
"=.	c #8F7C5D",
"-.	c #15120C",
";.	c #50380B",
">.	c #B98824",
",.	c #C9A044",
"'.	c #C4A87C",
").	c #736B5C",
"!.	c #120D03",
"~.	c #503C12",
"{.	c #9A7840",
"].	c #988369",
"^.	c #918679",
"/.	c #5B5348",
"(.	c #0E0B07",
"_.	c #201910",
":.	c #4E3E29",
"<.	c #2E261B",
"                                                                ",
"                              . + @ # $                         ",
"                        . % & * = # - &                         ",
"                    . ; * + > , ; = > =                         ",
"                ' + @ ) ! ' ! > ~ ~ { ] .                       ",
"            + ^ @ / ( ~ , * + ~ ] @ _ : ^ '                     ",
"        < % & * ) * * ^ ] ^ * ] [ : [ : [ # <                   ",
"        < } | ! , ~ * * _ > _ ) : : [ [ [ [ * <                 ",
"      $ & # ^ * ^ ~ { ] ) [ : : : [ [ 1 [ [ ) = <               ",
"      } @ 2 { # ~ ) : : - - - : [ [ 1 1 1 1 1 3 ( <             ",
"      ; ^ , ) 1 ) [ : - - : : : : [ [ [ 1 ) 1 1 , }             ",
"        ( 2 > : : - - - - - - : : [ [ ) ) ) ) ) ) { .           ",
"          | ~ : 4 5 - 5 - - : : [ 1 1 1 1 1 ) > > 1 2 .         ",
"          ' & ] 5 4 5 5 - : [ [ [ [ 1 1 ) ) > 3 > > ) ! <       ",
"    $ 6 7 8 ' = > 4 5 - : : : : : [ [ ) ) > > ) > > > > & <     ",
"    9 0 a b c d + ) 4 5 - : : [ [ 1 ) ) ) ) ) > 3 ] _ > _ / <   ",
"    e f g h i j k l 1 4 - : : [ 1 1 1 1 1 ) 3 _ _ 3 3 > [ > .   ",
"    $ m f n l o p q o r 5 : [ 1 [ 1 1 ) > 3 3 > 3 > 1 : 4 : ;   ",
"      $ e s t u v w x p y r : [ 1 1 ) > > ) > ) 1 - 4 5 1 ~ '   ",
"        < < < z A B C w D E F G ) ) ) ) ) ) [ - 4 - 3 @ = } <   ",
"              < H I J B v K L E F M ) 1 [ - 5 [ _ # / . < <     ",
"                  < N I O P v Q L R S r T 1 ~ + | ' <           ",
"                    < < U V W P v w L X Y k Z $ <               ",
"                          < ` I W P v Q L D  ...' <             ",
"                            < +.@.#.$.P %.&.D *.=.-.<           ",
"                                  +.;.I >.,.'.Y G ).$           ",
"                                    < !.~.{.].].^./.(.          ",
"                                        < _.7 :.<.-.!.<         ",
"                                            < < < < < <         ",
"                                                                ",
"                                                                ",
"                                                                "};
