/* XPM */
static char *iceweasel[] = {
/* columns rows colors chars-per-pixel */
"32 32 243 2 ",
"   c #1D1D1E",
".  c #1F2020",
"X  c #3C6137",
"o  c gray34",
"O  c #446C53",
"+  c #415C6E",
"@  c #445B74",
"#  c #435B7B",
"$  c #436065",
"%  c #446862",
"&  c #42626B",
"*  c #48676B",
"=  c #486A6A",
"-  c #486571",
";  c #526478",
":  c #777777",
">  c #7E7E7E",
",  c #2215A4",
"<  c #2616B4",
"1  c #2719B7",
"2  c #2A1BB6",
"3  c #2B1CBC",
"4  c #2E20AC",
"5  c #362BA2",
"6  c #3627B8",
"7  c #3A2CBB",
"8  c #3C3CB4",
"9  c #3B32BD",
"0  c #3C38BA",
"q  c #4538AF",
"w  c #4134BD",
"e  c #403DBA",
"r  c #483BBC",
"t  c #3F4F88",
"y  c #3C4595",
"u  c #3E4895",
"i  c #404F8F",
"p  c #425781",
"a  c #435984",
"s  c #495A89",
"d  c #475095",
"f  c #4D5A97",
"g  c #484FA5",
"h  c #515BA5",
"j  c #5851A8",
"k  c #5159A9",
"l  c #4040B7",
"z  c #4F42BE",
"x  c #5144BE",
"c  c #574BBF",
"v  c #4752BE",
"b  c #5C51B8",
"n  c #4673AD",
"m  c #2E1EC1",
"M  c #2F21C3",
"N  c #3223C5",
"B  c #372DC2",
"V  c #3C2EC5",
"C  c #3626CB",
"Z  c #3C2DCA",
"A  c #3D32C2",
"S  c #3C39C0",
"D  c #3F31D1",
"F  c #4234C2",
"G  c #4639C2",
"H  c #4A3EC4",
"J  c #4435CB",
"K  c #4638CE",
"L  c #4839CA",
"P  c #4D42C4",
"I  c #444BC3",
"U  c #4E41CC",
"Y  c #5145C0",
"T  c #564BC5",
"R  c #5B4FC4",
"E  c #5447C8",
"W  c #564ACB",
"Q  c #594DCB",
"!  c #5355C1",
"~  c #5D52C3",
"^  c #5D52CB",
"/  c #5345D3",
"(  c #5A4ED2",
")  c #5447D8",
"_  c #6157C7",
"`  c #655AC3",
"'  c #645BCC",
"]  c #685EC9",
"[  c #6357D1",
"{  c #6659D5",
"}  c #6359D9",
"|  c #695DD8",
" . c #5A64C6",
".. c #596AC4",
"X. c #6C62C4",
"o. c #6B62CC",
"O. c #776EC2",
"+. c #7065C9",
"@. c #756BCC",
"#. c #786ECC",
"$. c #7E74CE",
"%. c #707FC9",
"&. c #7F78CB",
"*. c #6D62D3",
"=. c #746AD7",
"-. c #7065DC",
";. c #756BDB",
":. c #7C73D2",
">. c #797DD4",
",. c #7A73D8",
"<. c #827ACE",
"1. c #837BD2",
"2. c #857CDA",
"3. c #857CE1",
"4. c #598796",
"5. c #5B82B4",
"6. c #7481A5",
"7. c #7683AD",
"8. c #7D8AA9",
"9. c #6A83B0",
"0. c #6F88B3",
"q. c #6983BF",
"w. c #678BBB",
"e. c #6C8DBE",
"r. c #7088B5",
"t. c #7B8BB2",
"y. c #7083BD",
"u. c #6E91BE",
"i. c #7D92B5",
"p. c #7294BF",
"a. c #6E82C9",
"s. c #7385C6",
"d. c #7B8FC3",
"f. c #7596C1",
"g. c #7798C2",
"h. c #7C9AC1",
"j. c #7F99C8",
"k. c #838383",
"l. c #8192AF",
"z. c #8F9EB6",
"x. c #8B9CBB",
"c. c #AEAEAE",
"v. c #AEAFB2",
"b. c #BBBCBC",
"n. c #8685C1",
"m. c #848AC2",
"M. c #8F8AC5",
"N. c #908BCA",
"B. c #8094C0",
"V. c #839BC4",
"C. c #8A9ECB",
"Z. c #8C84D5",
"A. c #828BD1",
"S. c #8B85D9",
"D. c #918BD3",
"F. c #9089DD",
"G. c #9791D6",
"H. c #9A93D6",
"J. c #9C96DA",
"K. c #9F99DA",
"L. c #A39DDB",
"P. c #8AA0C1",
"I. c #85A3C8",
"U. c #8BA6CB",
"Y. c #94ABCE",
"T. c #9CADC9",
"R. c #91ADD0",
"E. c #96B0D0",
"W. c #9DB4D2",
"Q. c #A1A8C6",
"!. c #A5B3CA",
"~. c #AAB9CE",
"^. c #A6A1DB",
"/. c #AAA4DD",
"(. c #ADA8DE",
"). c #A2B4D5",
"_. c #A5B9D4",
"`. c #AABDD1",
"'. c #A5B9DB",
"]. c #B6B3D5",
"[. c #B1BCD0",
"{. c #BBB7DE",
"}. c #8F87E3",
"|. c #9D96E7",
" X c #9C94E8",
".X c #A29BE4",
"XX c #A39CEA",
"oX c #AAA4E3",
"OX c #A7A1E8",
"+X c #AEA7ED",
"@X c #B3AEE2",
"#X c #B7B2E2",
"$X c #BBB7E3",
"%X c #BEBAE4",
"&X c #BAB4EE",
"*X c #BEBAEC",
"=X c #B8B2F1",
"-X c #C0BCE6",
";X c #C1BCE9",
":X c #C3BEF0",
">X c #A8C0DB",
",X c #BDC6D1",
"<X c #B2C4DD",
"1X c #BCCCE2",
"2X c #BED0E4",
"3X c #C2CEDE",
"4X c #CCD4DD",
"5X c #C7C4E1",
"6X c #C9C6E7",
"7X c #C0CEE4",
"8X c #CDCAE7",
"9X c #C4C0EB",
"0X c #D0CEE8",
"qX c #C5D2E3",
"wX c #CBD4E5",
"eX c #CCD9E9",
"rX c #D3D0EE",
"tX c #D2DCEA",
"yX c #C9C5F3",
"uX c #CFCBF4",
"iX c #D2CEF5",
"pX c #D4D5F1",
"aX c #D9D6F3",
"sX c #DCDAF4",
"dX c #D7E2EF",
"fX c #DAE3EF",
"gX c #D6E3F1",
"hX c #DBE6F3",
"jX c #DEE8F3",
"kX c #E1E2E5",
"lX c #E9E7F7",
"zX c #E4EBF4",
"xX c #E9EEF5",
"cX c #E9E7FA",
"vX c #EFEDFB",
"bX c #F0EFF9",
"nX c #ECF0F6",
"mX c #ECF2F9",
"MX c gray96",
"NX c #F2F5FA",
"BX c #F6F9FB",
"VX c #FDFEFE",
"CX c None",
/* pixels */
"CXCXCXCXCXCXCXCXCXCXCXCXCXCXCXCXCXCXp.1XW.CXf.U.5.CXCXCXCXCXCXCX",
"CXCXCXCXCXCXCXCXCXCXCXCXCXCXCXCXCXCXxXzXBXBXBXVXVX<Xu.CXCXCXCXCX",
"CXCXCXCXCXCXCXCXCXCXCXCXe.g.I.E.<XfXNXVXVXVXjXmXVXVXBXw.I.CXCXCX",
"CXCXCXCXCXCXCXCXCX_.zXVXVXVXVXVXVXVXVXVXVXVXVXVXVXmXBXBXmXNXCXCX",
"CXCXCXCXCXCXCXCXfXVXVXVXVXVXVXBXBXVXVXVXv.,XVXVXxXmXVXVXVXxXU.CX",
"CXCXCXCXCXCXCX1XVXVXVXjX~.x.0.9.0.V.xXVX  ; VXVXVX4XVXVXVXNXCXCX",
"CXCXCXCXCXCXu.VXVXjXt.g N.$X6X8X5X].qXNXBXmXVXVX`.. c.VXVXW.CXCX",
"CXCXCXCXCXCX_.VX3Xy X.H./.@X{.-X%X#XT.zXBXVXVXVXBXb.MXVXE.CXCXCX",
"CXCXCXCXCXCXqXVX7.b <.D.H.L./.(.(.^.n.fXdXVXVXVXVXBXmX1XCXCXCXCX",
"CXCXCXCXCXCXtXVX6.` <.H.Z.G.L./.^.L.D.7.xX: > nXhXjXqXCXCXCXCXCX",
"CXCXCXCXCX+ tXVX6.b #.aXrXJ.K.K.K.K.J.M.z.k.o kXgXy.CXCXCXCXCXCX",
"CXCXCXCXCX7 wXVX8.nX@.9X-X$.<.<.1.<.#.X.j l.x.h , M + CXCXCXCXCX",
"CXCXCXCXt m 7XVXz.<.x ~ <.<.$.$.$.#.+.` T q O.r L.2 9 CXCXCXCXCX",
"CXCXCXCX9 1 ).NX~.5 r T X.H.$.:.#.@.] _ z R BX@.2 7 N O CXCXCXCX",
"CXCXCXCXC 1 d.tXT.4 w x _ S.J.1.1.#.] ~ _ ~ 1.9 2 < N u CXCXCXCX",
"CXCXCX* N 1 8 P.d 6 w z _ :.@XJ.Z.<.1.1._ 9 r P 2 < 3 8 CXCXCXCX",
"CXCXCXa N 1 3 w H 7 G T ] :.;XcXaX;XJ.[ H 9 w T 3 1 3 0 CXCXCXCX",
"CXCXCXi M 1 3 P H 7 G R ] 2.aXVXBX;X@.^ P w G E 3 3 3 9 CXCXCXCX",
"CXCXCX# N 3 m P e.e.a.v *.K.sXNXvXoX*.^ P F H P m 3 m 0 CXCXCXCX",
"CXCXCX% C 3 M v n ..f.E.V.S.S.oX;XF.' T L A W J N m N 8 CXCXCXCX",
"CXCXCXCXD 3 N S u.p.Y.<XtX2Xs.:.2..X{ Q H V ^ N N N C a CXCXCXCX",
"CXCXCXCXl D N K U.U.<XtXxXBXVX7X%.S.S.[ W U ^ C Z m I 4.CXCXCXCX",
"CXCXCXCX* C L 3.*Xj.eXxXBXVXVXVXVX{.A.=.{ -.} / C N ).CXCXCXCXCX",
"CXCXCXCXCX8 Z ( 3.tXI.MXVXVXVXVXVXVXBX<X>.NX-./ K ..eXCXCXCXCXCX",
"CXCXCXCXCXCXD ( | iX|.h.bXVXVXVXVXVXVXBXxX'.a. .a.dXR.CXCXCXCXCX",
"CXCXCXCXCXCX- ) ;.2.XX|.m.[.BXVXVXBXBXNXmXxXzXzXjX2XCXCXCXCXCXCX",
"CXCXCXCXCXCXCX* } }.OX+X=X@Xt.!.zXmXmXxXjXhXhXgX>XCXCXCXCXCXCXCX",
"CXCXCXCXCXCXCXCXO '  X&X:XuXaX0XQ.i.P.Y.E.R.h.5.CXCXCXCXCXCXCXCX",
"CXCXCXCXCXCXCXCXCXCX@ *. XyXcXNXmXaXOX,.k CXCXCXCXCXCXCXCXCXCXCX",
"CXCXCXCXCXCXCXCXCXCXCXCXCX$ s h f @ X CXCXCXCXCXCXCXCXCXCXCXCXCX",
"CXCXCXCXCXCXCXCXCXCXCXCXCXCXCXCXCXCXCXCXCXCXCXCXCXCXCXCXCXCXCXCX",
"CXCXCXCXCXCXCXCXCXCXCXCXCXCXCXCXCXCXCXCXCXCXCXCXCXCXCXCXCXCXCXCX"
};
