/* XPM */
static char *rhythmbox_small[] = {
/* columns rows colors chars-per-pixel */
"32 32 139 2",
"   c #50514E",
".  c #525350",
"X  c #575A57",
"o  c #585A56",
"O  c #575A58",
"+  c #575B58",
"@  c #575A59",
"#  c #555B5D",
"$  c #545B5F",
"%  c #5C5D5A",
"&  c #4E5D6A",
"*  c #4C5E6F",
"=  c #515C65",
"-  c #505C66",
";  c #515C66",
":  c #4B5E71",
">  c #4A5E75",
",  c #48607B",
"<  c #596776",
"1  c #5F6A73",
"2  c #61676C",
"3  c #606A72",
"4  c #6C7172",
"5  c #6B7274",
"6  c #767973",
"7  c #777B75",
"8  c #787A76",
"9  c #787A77",
"0  c #7B7D79",
"q  c #7B7D7A",
"w  c #7C7E7A",
"e  c #7D7F7A",
"r  c #7D7F7B",
"t  c #7C807A",
"y  c #7E817B",
"u  c #7D817C",
"i  c #7E817C",
"p  c #7E817D",
"a  c #7F827D",
"s  c #80837E",
"d  c #81837E",
"f  c #82847F",
"g  c #3365A3",
"h  c #3465A3",
"j  c #3365A4",
"k  c #3464A4",
"l  c #3465A4",
"z  c #3565A4",
"x  c #3465A5",
"c  c #3565A5",
"v  c #3466A4",
"b  c #456080",
"n  c #426185",
"m  c #426186",
"M  c #7087A1",
"N  c #7E8FA0",
"B  c #91928E",
"V  c #929490",
"C  c #949591",
"Z  c #949691",
"A  c #999B96",
"S  c #9FA09C",
"D  c #A0A09D",
"F  c #A4A5A1",
"G  c #A9ABA6",
"H  c #AAABA8",
"J  c #ADAEAB",
"K  c #ACAEAC",
"L  c #AEB0AD",
"P  c #B2B2AF",
"I  c #B2B3B0",
"U  c #BEC0BB",
"Y  c #9EB4D0",
"T  c #BBC2C0",
"R  c #B5C2CF",
"E  c #C2C5C0",
"W  c #C4C4C1",
"Q  c #C4C5C2",
"!  c #C6C6C4",
"~  c #C5C9C3",
"^  c #C7C9C3",
"/  c #C9C9C7",
"(  c #C9CAC7",
")  c #CBCBC9",
"_  c #C9CCC9",
"`  c #CBCCCA",
"'  c #CACCCB",
"]  c #CCCCC9",
"[  c #CCCDCA",
"{  c #CCCDCB",
"}  c #CDCDCB",
"|  c #CECECB",
" . c #CECFCC",
".. c #CFCFCE",
"X. c #CBD3D6",
"o. c #CFD6D7",
"O. c #D8D8D6",
"+. c #D8D9D7",
"@. c #D9D9D7",
"#. c #DADCD7",
"$. c #DADEDB",
"%. c #DCDDDA",
"&. c #DEDEDC",
"*. c #DFE1DD",
"=. c #DFE0DE",
"-. c #E0E0DD",
";. c #E0E2DD",
":. c #E0E0DE",
">. c #E0E1DE",
",. c #CAD5E2",
"<. c #CDD7E3",
"1. c #D6DBE1",
"2. c #D6DDE3",
"3. c #E3E3E1",
"4. c #E3E4E1",
"5. c #E3E5E1",
"6. c #E4E4E1",
"7. c #E4E4E2",
"8. c #E1E5E7",
"9. c #E4E6E6",
"0. c #E2E7EC",
"q. c #E3E8ED",
"w. c #E6EAEE",
"e. c #E7EAEE",
"r. c #EAEAE8",
"t. c #EDEDEC",
"y. c #EDEEEC",
"u. c #EEEEEC",
"i. c #EFEFED",
"p. c #ECEEF0",
"a. c #EEEFF1",
"s. c #F2F2F0",
"d. c #F3F3F2",
"f. c #F3F4F3",
"g. c #F2F4F6",
"h. c #F5F5F4",
"j. c #FAFAF9",
"k. c #FBFBFA",
"l. c None",
/* pixels */
"l.l.l.l.l.l.l.l.l.l.l.l.l.l.l.l.l.l.l.l.l.l.l.l.l.l.l.l.l.l.l.l.",
"l.l.l.l.l.l.l.l.l.l.l.l.l.l.l.l.l.l.l.l.l.l.l.l.l.l.l.l.l.l.l.l.",
"l.l.l.l.l.l.l.l.l.p 7 7 7 7 7 7 7 7 7 7 7 7 a l.l.l.l.l.l.l.l.l.",
"l.l.l.l.l.l.l.l.u ` j.k.k.k.k.k.k.k.k.k.k.j.` t l.l.l.l.l.l.l.l.",
"l.l.l.l.l.l.l.y _ k.k.k.k.k.k.k.k.k.k.k.k.k.g.' i l.l.l.l.l.l.l.",
"l.l.l.l l.l.l.4 2 o o o o o o o o o o o o o # < 5 l.l.l.l l.l.l.",
"l.l.l.l.l.l.1 N 9.h.h.h.h.h.h.h.h.h.h.h.h.h.h.1.M 3 l.l.l.l.l.l.",
"l.l.l l.l.l.b 8.5.;.;.;.#.G B 8 8 B G #.;.;.;.5.2.m l.l.l.l l.l.",
"l.l l.l.l.h & h.;.;.;.E w C I ] &.! S r E ;.;.;.h.* c l.l.l.l l.",
"l.l l.l.l.l X h.;.;.E 9 L  .@.3.u.u.u.{ q E ;.;.h.@ l l.l.l.l l.",
"l.l l.l.v l.o h.;.#.w J  .@.6.u.u.u.u.u.{ r #.;.h.o l.g l.l.l l.",
"l l.l.l.k l.o h.;.G V  .+.6.u.u.u.u.u.u.u.S G ;.h.o l.x l.l.l.l ",
"l l.l.l.j l.o h.;.B P +.6.u.u.u.u.u.u.u.u.! B ;.h.o l.h l.l.l.l ",
"l l.l.l.l l.o h.;.8 } 4.u.u.u.H H u.u.u.u.&.8 ;.h.o l.l l.l.l.l ",
"l l.l.l.z l.o h.;.8 &.u.u.u.u.F F u.u.u.7...8 ;.h.o l.j l.l.l.l ",
"l l.l.l.x l.o h.;.B ! u.u.u.u.u.u.u.u.6.O.P B ;.h.o l.h l.l.l.l ",
"l l.l.l.l.l o h.;.G S u.u.u.u.u.u.u.3.O.| Z G ;.h.o l.l.l.l.l.l ",
"l.l.l.l.l.l $ h.;.#.r { u.u.u.u.u.3.O.| K e #.;.h.O k l.l.l.l.l ",
"l.l l.l.l.l., f.;.;.E q { u.u.u.3.O.| L 9 E ;.;.h.: v l.l.l.l l.",
"l.l l.l.l.l.> ,.*.;.;.E r S ! &.) P C 0 E ;.;.;.0.n l.l.l.l.l l.",
"l.l.l l.l.l.+ <.o.;.;.;.#.G B 8 8 B G #.;.;.;.X.Y ; l.l.l.l l.l.",
"l.l.l.l.l.l.o h.$.^ A 6 A ^ ;.;.;.;.^ A 6 A T R w.o l.l.l.l l.l.",
"l.l.l.l l.l.o h.^ f W :.( d ^ ;.;.^ f W :.( s ~ h.o l.l.l l.l.l.",
"l.l.l.l.l.l.o h.A Q %.>.d.[ A ;.;.A Q %.>.d.[ A h.o l.l.l.l.l.l.",
"l.l.l.l.l.l.$ h.6 =.-.U i.t.6 ;.;.6 =.-.U i.t.6 h.# l.l.l.l.l.l.",
"l.l.l.l.l.l.- q.A / s.i.d.[ A ;.;.A / s.i.d.[ A e.= l.l.l.l.l.l.",
"l.l.l.l.l.l.o p.^ d [ t.[ d ^ ;.;.^ d [ t.[ d ^ a.o l.l.l.l.l.l.",
"l.l.l.l.l.l.o y.5.^ A 6 A ^ ;.;.;.;.^ A 6 A ^ 5.y.o l.l.l.l.l.l.",
"l.l.l.l.l.l.. D r.h.h.h.h.h.h.h.h.h.h.h.h.h.h.r.D . l.l.l.l.l.l.",
"l.l.l.l.l.l.l.  % o o o o o o o o o o o o o o %   l.l.l.l.l.l.l.",
"l.l.l.l.l.l.l.l.l.l.l.l.l.l.l.l.l.l.l.l.l.l.l.l.l.l.l.l.l.l.l.l.",
"l.l.l.l.l.l.l.l.l.l.l.l.l.l.l.l.l.l.l.l.l.l.l.l.l.l.l.l.l.l.l.l."
};
