/* XPM */
static char *sylpheed-debian[] = {
/* columns rows colors chars-per-pixel */
"32 32 130 2",
"   c #000000",
".  c #0C0C0C",
"X  c #151515",
"o  c #1B1B1B",
"O  c #252425",
"+  c #2C2C2C",
"@  c #353535",
"#  c #3B3B3B",
"$  c #7B2F32",
"%  c #444444",
"&  c #4E4E4E",
"*  c #565656",
"=  c #5B5B5B",
"-  c #625E73",
";  c #656565",
":  c #6B6B6B",
">  c #737473",
",  c #777678",
"<  c #7C7C7C",
"1  c #7F7E86",
"2  c #7D81CD",
"3  c #8C4A4C",
"4  c #965556",
"5  c #925658",
"6  c #985B5D",
"7  c #936364",
"8  c #9C6062",
"9  c #9D6B6C",
"0  c #A06B6D",
"q  c #A37374",
"w  c #AB7C7E",
"e  c #838383",
"r  c #8B8B8B",
"t  c #939393",
"y  c #9B9B9B",
"u  c #A28283",
"i  c #A6898A",
"p  c #AC8384",
"a  c #AA8C8C",
"s  c #AC8F90",
"d  c #AF9696",
"f  c #B08B8C",
"g  c #B09697",
"h  c #B49A9B",
"j  c #BB9B9C",
"k  c #A2A3A2",
"l  c #A5A3AB",
"z  c #ACACAC",
"x  c #A8A6B3",
"c  c #ADAABB",
"v  c #B5A2A2",
"b  c #BBA2A3",
"n  c #B4B4B4",
"m  c #BEB0B0",
"M  c #BCBCBC",
"N  c #8286CF",
"B  c #8387D0",
"V  c #8488D0",
"C  c #898DD2",
"Z  c #8F93D4",
"A  c #9296D5",
"S  c #9B9ED9",
"D  c #9DA1DA",
"F  c #A5A9DC",
"G  c #ABAEDE",
"H  c #AEB7DD",
"J  c #BCBAC4",
"K  c #BEBACC",
"L  c #BABCDA",
"P  c #AFB2E1",
"I  c #B1B3E1",
"U  c #B5BCE1",
"Y  c #B9BBE4",
"T  c #BEC2E4",
"R  c #C1A3A4",
"E  c #C1ABAC",
"W  c #C3B2B2",
"Q  c #C5B8B9",
"!  c #CDB7B8",
"~  c #D3BFBF",
"^  c #C2BFD0",
"/  c #C4C4C4",
"(  c #CDC4C4",
")  c #CBCBCB",
"_  c #CDCDDC",
"`  c #D1C6C6",
"'  c #D2CBCB",
"]  c #D1CEDE",
"[  c #D3D3D3",
"{  c #D6D5D8",
"}  c #DAD6D6",
"|  c #DBDBDB",
" . c #C0C4E5",
".. c #C3C5E8",
"X. c #C4CBE5",
"o. c #C7C9EA",
"O. c #D4D5E4",
"+. c #D2D4EB",
"@. c #D6DBE9",
"#. c #D9D7E0",
"$. c #DAD6ED",
"%. c #DEDEE3",
"&. c #D7D9F0",
"*. c #DDD6F8",
"=. c #DBD9F3",
"-. c #DEE0EA",
";. c #E2DBDB",
":. c #E2DFE0",
">. c #E0DDEB",
",. c #E2DEF5",
"<. c #E3DDFB",
"1. c #E0E0DF",
"2. c #E3E3E3",
"3. c #E4E4EC",
"4. c #E7E8EE",
"5. c #ECECEC",
"6. c #E4E2F3",
"7. c #E6E1FB",
"8. c #E8E6F3",
"9. c #EAE6FA",
"0. c #ECEBF4",
"q. c #EFF0EF",
"w. c #EEF0F4",
"e. c #F0EEEE",
"r. c #F0EFF4",
"t. c #F0EEFB",
"y. c #F4F4F4",
"u. c #F6F5FC",
"i. c #FDFDFD",
"p. c None",
/* pixels */
"p.p.p.p.p.p.p.p.p.p.p.p.p.p.p.p.p.p.p.p.p.p.p.p.p.p.p.p.p.p.p.p.",
"p.p.p.p.p.p.p.p.p.p.p.p.p.p.p.p.p.p.p.p.p.p.p.p.p.p.p.p.p.p.p.p.",
"p.p.p.p.p.p.p.p.p.p.p.p.p.p.p.p.p.p.p.p.p.p.p.p.p.p.p.p.p.p.p.p.",
"p.p.p.p.p.p.p.p.p.p.p.p.p.p.p.o o & e : . p.p.p.p.p.p.p.p.p.p.p.",
"p.p.p.p.p.p.p.p.p.o o O > 1 z :.| 5.u.1.O p.p.p.p.p.p.p.p.p.p.p.",
"p.p.p.p.. O > e r { | >.r.t.9.r.r.4.8.,.- p.  .   p.p.p.p.p.p.p.",
"p.p.p.p.> 3.u.u.t.<.7.7.<.,.,.-.,.,.3.>.1 % > ; o p.p.p.p.p.p.p.",
"p.p.p.p.& 8.7.<.<.,.*.,.8.8.0.0.3.[ M k z [ } k % . p.p.p.p.p.p.",
"p.p.p.p.o #.9.t.0.0.0.y.0.3.#.J l z ) @.y.y.M [ e X p.p.p.p.p.p.",
"p.p.p.p.o | u.8.0.7.,.+.K l l J 2.i.i.T 8.2.n 5.M @   p.p.p.p.p.",
"p.p.p.p.p.z 9.*.$.^ x l M -.-.o.u.+.H C 6.M [ 2.| : . p.p.p.p.p.",
"p.p.p.p.p., _ c l n } 3.&.6.Y S Z B S F _ n 2.2.2.z + p.p.p.p.p.",
"p.p.. X @ < n ) L H u.&.F A C 2 Z F T 4.M ) 2.2.| ) = . p.p.p.p.",
"p.o = t / 5.i.$.B ..I 2 C C T L T +.-.} n 2.| | | | t o p.p.p.p.",
"p.+ y | u.i.i.8.G D D N ..T X.T 5.q.q.n ) 2.| | [ [ M % . p.p.p.",
"p.o t / n [ y.&.C I 9.+.t.H @.y.q.5.[ n | | | [ [ [ ) < X p.p.p.",
"p.. < u.0.) M M ] i.i.u.X.O.e.;.| 2.n ) 1.| [ [ [ ) ) z # . p.p.",
"p.  % 2.i.i.y.| M n | -.+.e.j 3 4 p z | | } [ ) ) ) / / ; X p.p.",
"p.p.O M i.i.i.i.i.2./ n / R $ 7 p 3 h | } [ ) ) ) / / M y + p.p.",
"p.p.X r i.i.i.i.i.i.u.2.) 7 5 ! ~ 9 p | [ [ ) ) / / M M n * . p.",
"p.p.. * 5.i.i.i.y.y.y.q.5.R 6 R b 0 a } [ ) ) / / M M M n e O p.",
"p.p.p.+ ) i.i.i.y.y.q.5.5.;.w 8 3 q ( [ ) ) / / / M n n n y # . ",
"p.p.p.X y i.i.y.y.q.5.2.2.2.} b j ' [ ) / ) / M M M z t : % O   ",
"p.p.p.. ; y.y.q.q.5.5.2.[ W v u v ) ) ) / / / n y , & + X .   p.",
"p.p.p.p.# [ y.y.5.;.` W h a d i h ) ) ) / z e = @ o .   p.p.p.p.",
"p.p.p.p.o z 5.` m j h g h m Q ) [ ) n t ; # o .   p.p.p.p.p.p.p.",
"p.p.p.p.. > ;.b g h a b ) [ [ / y > % O . . p.p.p.p.p.p.p.p.p.p.",
"p.p.p.p.  % [ b b h d Q ) n e & + X .   p.p.p.p.p.p.p.p.p.p.p.p.",
"p.p.p.p.p.O z ( Q ( n r = + X . p.p.p.p.p.p.p.p.p.p.p.p.p.p.p.p.",
"p.p.p.p.p.X < ) y : # o .   p.p.p.p.p.p.p.p.p.p.p.p.p.p.p.p.p.p.",
"p.p.p.p.p.. @ % o . . p.p.p.p.p.p.p.p.p.p.p.p.p.p.p.p.p.p.p.p.p.",
"p.p.p.p.p.p..   p.p.p.p.p.p.p.p.p.p.p.p.p.p.p.p.p.p.p.p.p.p.p.p."
};
