/* XPM */
static char *libreoffice_startcenter[] = {
/* columns rows colors chars-per-pixel */
"32 32 102 2 ",
"   c gray20",
".  c #343434",
"X  c #353535",
"o  c #373737",
"O  c #393939",
"+  c #3A3A3A",
"@  c #3C3C3C",
"#  c #3E3E3E",
"$  c #3F3F3F",
"%  c #414141",
"&  c #434343",
"*  c #444444",
"=  c #464646",
"-  c gray28",
";  c #494949",
":  c #4B4B4B",
">  c #4C4C4C",
",  c #4E4E4E",
"<  c #505050",
"1  c #515151",
"2  c #535353",
"3  c #555555",
"4  c #565656",
"5  c #585858",
"6  c gray35",
"7  c #5A5A5A",
"8  c #5B5B5B",
"9  c gray36",
"0  c #5D5D5D",
"q  c gray37",
"w  c #5F5F5F",
"e  c #606060",
"r  c #626262",
"t  c gray39",
"y  c #656565",
"u  c gray46",
"i  c #777777",
"p  c #797979",
"a  c #7C7C7C",
"s  c gray49",
"d  c #808080",
"f  c gray51",
"g  c #848484",
"h  c gray53",
"j  c #898989",
"k  c gray70",
"l  c #B4B4B4",
"z  c #B6B6B6",
"x  c gray72",
"c  c gray73",
"v  c #BBBBBB",
"b  c #BCBCBC",
"n  c gray74",
"m  c gray",
"M  c gray75",
"N  c #C0C0C0",
"B  c #C1C1C1",
"V  c #C3C3C3",
"C  c #C5C5C5",
"Z  c gray78",
"A  c gray79",
"S  c #CBCBCB",
"D  c #CDCDCD",
"F  c #CECECE",
"G  c gray81",
"H  c #D0D0D0",
"J  c gray82",
"K  c #D2D2D2",
"L  c gray83",
"P  c gray84",
"I  c #D8D8D8",
"U  c #DADADA",
"Y  c gainsboro",
"T  c #DDDDDD",
"R  c gray87",
"E  c #DFDFDF",
"W  c gray88",
"Q  c #E1E1E1",
"!  c #E2E2E2",
"~  c gray89",
"^  c #E4E4E4",
"/  c gray90",
"(  c #E6E6E6",
")  c #E7E7E7",
"_  c #E9E9E9",
"`  c #EAEAEA",
"'  c gray92",
"]  c #ECECEC",
"[  c #EEEEEE",
"{  c #EFEFEF",
"}  c gray94",
"|  c #F1F1F1",
" . c gray95",
".. c #F3F3F3",
"X. c #F4F4F4",
"o. c gray96",
"O. c #F6F6F6",
"+. c #F8F8F8",
"@. c #F9F9F9",
"#. c gray98",
"$. c #FBFBFB",
"%. c None",
/* pixels */
"%.%.%.%.y y y y y y y y y y y y y y %.%.%.y y y y y y y y %.%.%.",
"%.%.%.y e y e y e e y e y y y e e y e %.%.y y e e y e y y %.%.%.",
"%.%.%.e e ( ( ( ( ( ~ ~ ( ( ( ~ ~ j y e %.%.e e y e e y e %.%.%.",
"%.%.%.e e ~ $.$.$.$.$.$.$.$.$.$.[ ~ j e e %.%.e e e e e e %.%.%.",
"%.%.%.w w ~ $.$.$.$.$.$.O.$.$.$.$.[ R f w w %.%.w w w w e %.%.%.",
"%.%.%.w w R $.O.$.O.O.$.$.$.O.$.O.$.[ R f w w %.%.w 7 w w %.%.%.",
"%.%.%.7 7 R O.$.$.$.O.$.O.$.$.O.$.O.$.` I f 7 7 %.%.7 w w %.%.%.",
"%.%.%.7 7 R O.O.O.O.$.O.$.O.$.O.O.$.O.$.` I a 7 7 %.%.7 7 %.%.%.",
"%.%.%.7 7 I O.O.O.O.O.O.O.O.O.O.O.O.O.O.O.( I a 3 7 %.%.%.%.%.%.",
"%.%.%.3 3 I O.O.O.O.O.O.O.O.O.O.O.O.O.O.O.O.` H p 3 3 %.%.%.%.%.",
"%.%.%.3 3 L O.O.O.O.} O.O.} O.O.} O.O.} } O.O.( H i 3 3 %.%.%.%.",
"%.%.%.2 3 L } } } } O.} O.} } O.} O.} O.} O.} O.( H i 2 2 %.%.%.",
"%.%.%.2 2 H } O.} } } } O.} } } } O.} } O.} } O.} ~ G 2 2 %.%.%.",
"%.%.%.2 > G } } } } } } } } } } } } } } } } } } } } G 2 > %.%.%.",
"%.%.%.> > G } [ } } [ } } } [ } [ } } } } [ [ } } [ H > > %.%.%.",
"%.%.%.> > G [ [ } [ [ [ [ [ [ [ [ [ [ [ [ [ [ [ [ [ G > > %.%.%.",
"%.%.%.: > A ` ` ` [ ` ` ` [ ` ` [ ` [ ` ` [ ` [ ` [ A > > %.%.%.",
"%.%.%.: : A ` ` ` ` ` ` ` ` ` ` ` ` ` ` ` ` ` ` ` ` A : : %.%.%.",
"%.%.%.: * A ` ` ` ` ` ` ` ` ` ` ( ` ` ` ` ` ` ` ` ` Z * * %.%.%.",
"%.%.%.* * Z ` ( ( ( ` ( ( ( ( ( ( ` ( ( ( ( ( ( ( ( Z * : %.%.%.",
"%.%.%.* * N ( ( ( ( ( ( ( ( ( ( ( ( ( ( ( ( ( ( ( ( N & & %.%.%.",
"%.%.%.& & N ( ( ( ( ( ( ~ ( ( ( ( ( ( ( ( ~ ~ ( ( ( N & & %.%.%.",
"%.%.%.& & m ~ ( ~ ( ~ ( ( ( ( ( ( ( ( ( ( ( ( ( ( ( N & & %.%.%.",
"%.%.%.# # m ~ ( ~ ( ~ ~ ~ ~ ~ ~ ~ ~ ~ ~ ~ ~ ~ ~ ( ~ m # # %.%.%.",
"%.%.%.# # x ( ~ ~ ~ ~ ~ ~ ~ ~ ~ ~ ~ ~ ~ ~ ~ ~ ~ ~ ~ m # # %.%.%.",
"%.%.%.# # x ~ ~ ~ ~ ~ ~ ~ ~ ~ ~ ~ ~ ~ ~ ~ ~ ~ ~ ~ ~ x # O %.%.%.",
"%.%.%.O O z ~ ~ ~ ~ ~ ~ R ~ ~ ~ ~ ~ ~ R ~ R ~ ~ ~ ~ z O O %.%.%.",
"%.%.%.O O z R ~ ~ R ~ R ~ R ~ R ~ R ~ ~ R ~ ~ R R ~ z O O %.%.%.",
"%.%.%.X O z R ~ R ~ R ~ ~ R ~ R R ~ R R R ~ R ~ R ~ z X O %.%.%.",
"%.%.%.X X k k k k k k k k k k k k k k k k k k k k k k X X %.%.%.",
"%.%.%.X X         X X         X X   X X   X X     X X   X %.%.%.",
"%.%.%.%.                                                %.%.%.%."
};
