/* XPM */
static char *libreoffice_base[] = {
/* columns rows colors chars-per-pixel */
"32 32 92 1 ",
"  c #540261",
". c #590266",
"X c #5D026B",
"o c #640273",
"O c #6C027C",
"+ c #720383",
"@ c #760388",
"# c #7A038C",
"$ c #7E0391",
"% c #820395",
"& c #86039A",
"* c #8A039E",
"= c #913A9E",
"- c #8D03A2",
"; c #920BA6",
": c #9411A8",
"> c #9815AD",
", c #9C1DAF",
"< c #9B22AD",
"1 c #963DA3",
"2 c #993FA6",
"3 c #9E26B0",
"4 c #A124B3",
"5 c #A42BB7",
"6 c #A62DB8",
"7 c #A53BB5",
"8 c #A732B9",
"9 c #A933BA",
"0 c #AA3FBA",
"q c #9D42AB",
"w c #A044AE",
"e c #A447B2",
"r c #A942B9",
"t c #AE55BC",
"y c #AF3EC0",
"u c #B23EC3",
"i c #B646C7",
"p c #B84EC9",
"a c #B349C3",
"s c #B55EC2",
"d c #BD53CC",
"f c #BF5DCE",
"g c #BF62CD",
"h c #B973C3",
"j c #C15BD0",
"k c #C16BCF",
"l c #C17BCB",
"z c #C562D3",
"x c #C86CD5",
"c c #CB6ADA",
"v c #C974D6",
"b c #CC72DA",
"n c #D172DF",
"m c #D17CDD",
"M c #D47EE1",
"N c #D87FE6",
"B c #B3B3B3",
"V c #BBBBBB",
"C c #C694CD",
"Z c #CE83DA",
"A c #D183DD",
"S c #CE9DD5",
"D c #D09FD7",
"F c #D380E0",
"G c #D68AE2",
"H c #D888E5",
"J c #DC85E9",
"K c #DE8CEA",
"L c #DB94E6",
"P c #E194EC",
"I c #E39CED",
"U c #E4A1EE",
"Y c #E6A5F0",
"T c #E7A8F1",
"R c #E8ACF1",
"E c #EBB4F3",
"W c #EDBBF5",
"Q c #C4C4C4",
"! c #CCCCCC",
"~ c #D2CED3",
"^ c #D3D2D3",
"/ c #D7D3D8",
"( c #D9D5DA",
") c #DCDBDC",
"_ c #E0DCE1",
"` c #EFC2F4",
"' c #F0C4F6",
"] c #E3E3E3",
"[ c #ECEBEC",
"{ c #F4F4F4",
"} c #F9F9F9",
"| c None",
/* pixels */
"||||--------------|||--------|||",
"|||****-***********||--**---&|||",
"|||**[]]][[]][][]e**||****&--|||",
"|||&&]}}}}}}}}}}{_e&&||&&&&&&|||",
"|||&&]}}}}}}}}}}}[_w&&||&&&&&|||",
"|||%%_}}}}}}}}}}}}[)q%%||%%&%|||",
"|||%%)}}}}}}}}}}}}}[)2%%||%%%|||",
"|||$$)}}{}}}{}}}}}}}[/2%$||$%|||",
"|||$#)}}{{{}{}{}{}{{{[/2$$||||||",
"|||##({{{}{{{{{{{{{{{{[~1##|||||",
"|||#@/{{{{{{{{{{{{{{{{{_~1##||||",
"|||#@^{{{{{{{{{{{{{{{{{{]~=@#|||",
"|||@@^{{[[Sltr3;;3rslD[{{_!@@|||",
"|||++^{[S:0zvALUIGbzp8:D[{^@@|||",
"|||++![[;vERRTUIPKPKKJd:[[!++|||",
"|||++![{-:8dzbAKKMzdi5;-[{!++|||",
"|||OO![[-`Zza8,;;,6ypzK-[[!O+|||",
"|||OOQ[[-WWEERTYIIPPKJK-[[QOO|||",
"|||OOQ[[-RRYYUIIPKKKJJJ-[[QOO|||",
"|||OOQ][;8MIIKKKJJJJJc5;][QOO|||",
"|||OoQ]]-k3;>48uu94>;>d-[]Qoo|||",
"|||ooQ[]-'WEUGvjfxMHPPK-]]Qoo|||",
"|||ooV[]-EERTTYUIPPKJJJ-]]Qoo|||",
"|||ooV]];GYYUPPPKJJJJJc;][VXo|||",
"|||XoV]]C:7pjxnFJbzda5:C]]VXX|||",
"|||XXV]]])Cht7<;;<7thC)]]]VXX|||",
"|||X.V]]]]]]]]]]]_]]]]]]]]BXX|||",
"|||..B]])]]]]]])]_]]]_]]]]BXX|||",
"|||..B]_])]))]))])]])__]]]B..|||",
"|||  BBBBBBBBBBBBBBBBBBBBBB  |||",
"|||                          |||",
"||||                        ||||"
};
