/* XPM */
static char *libreoffice_writer[] = {
/* columns rows colors chars-per-pixel */
"32 32 143 2 ",
"   c #393939",
".  c #023F62",
"X  c #024063",
"o  c #024165",
"O  c #024267",
"+  c #024469",
"@  c #02456B",
"#  c #02466D",
"$  c #02466E",
"%  c #02486F",
"&  c #024870",
"*  c #024972",
"=  c #024A74",
"-  c #024C76",
";  c #024D77",
":  c #024D78",
">  c #024E7A",
",  c #024F7A",
"<  c #02507C",
"1  c #02517E",
"2  c #02527F",
"3  c #464646",
"4  c #424649",
"5  c #474D50",
"6  c #5B656B",
"7  c #627077",
"8  c #025380",
"9  c #025381",
"0  c #025482",
"q  c #035584",
"w  c #035786",
"e  c #035787",
"r  c #035889",
"t  c #03598A",
"y  c #03598B",
"u  c #035B8D",
"i  c #035C8E",
"p  c #035C8F",
"a  c #035D91",
"s  c #035F93",
"d  c #035F94",
"f  c #036095",
"g  c #036096",
"h  c #036197",
"j  c #036297",
"k  c #036298",
"l  c #036399",
"z  c #03639A",
"x  c #03649B",
"c  c #03649C",
"v  c #03659C",
"b  c #03659D",
"n  c #03659E",
"m  c #03669E",
"M  c #39799E",
"N  c #0367A0",
"B  c #0368A1",
"V  c #0368A2",
"C  c #3A7BA0",
"Z  c #3C7DA2",
"A  c #3E7FA5",
"S  c #6A7E89",
"D  c #3F82A7",
"F  c #6E828D",
"G  c #4184AA",
"H  c #4285AC",
"J  c #4488AE",
"K  c #468AB1",
"L  c #478CB3",
"P  c #73B9E2",
"I  c #73BBE4",
"U  c #75C3F0",
"Y  c #89AABC",
"T  c gray70",
"R  c #B4B4B4",
"E  c #B6B6B6",
"W  c gray72",
"Q  c gray73",
"!  c #BBBBBB",
"~  c #BCBCBC",
"^  c gray74",
"/  c gray",
"(  c gray75",
")  c #9DC9E1",
"_  c #96D1F1",
"`  c #98D4F5",
"'  c #C0C0C0",
"]  c #C1C1C1",
"[  c #C3C3C3",
"{  c #C5C5C5",
"}  c gray78",
"|  c gray79",
" . c #CBCBCB",
".. c #CACDCF",
"X. c #CDCDCD",
"o. c #CECECE",
"O. c gray81",
"+. c #CDD0D2",
"@. c #CED1D3",
"#. c #D0D0D0",
"$. c gray82",
"%. c #D2D2D2",
"&. c #D1D4D5",
"*. c gray83",
"=. c gray84",
"-. c #D3D6D8",
";. c #D5D8DA",
":. c #D8D8D8",
">. c #DADADA",
",. c #D8DBDC",
"<. c #DADDDE",
"1. c gainsboro",
"2. c gray87",
"3. c #DFDFDF",
"4. c #DDDFE1",
"5. c #DEE0E2",
"6. c gray88",
"7. c #E1E1E1",
"8. c #E2E2E2",
"9. c gray89",
"0. c #E0E2E4",
"q. c #E4E4E4",
"w. c gray90",
"e. c #E6E6E6",
"r. c #E7E7E7",
"t. c #E9E9E9",
"y. c #EAEAEA",
"u. c gray92",
"i. c #ECECEC",
"p. c #EEEEEE",
"a. c #EFEFEF",
"s. c gray94",
"d. c #F1F1F1",
"f. c gray95",
"g. c #F3F3F3",
"h. c #F4F4F4",
"j. c gray96",
"k. c #F6F6F6",
"l. c #F8F8F8",
"z. c #F9F9F9",
"x. c gray98",
"c. c #FBFBFB",
"v. c None",
/* pixels */
"v.v.v.v.V V V V V V V V V V V V V V v.v.v.V V V V V V V V v.v.v.",
"v.v.v.N N N N N N n N N N N N N N N N v.v.V N N N N V m m v.v.v.",
"v.v.v.n n w.w.w.w.w.w.q.w.w.w.w.9.L n n v.v.n n n n n n m v.v.v.",
"v.v.v.x x 9.c.c.c.c.c.c.c.c.c.c.p.5.K x x v.v.n n x x n n v.v.v.",
"v.v.v.l l 9.c.c.c.l.c.c.l.c.l.c.c.p.5.J l l v.v.l l l l x v.v.v.",
"v.v.v.h h 3.c.k.c.l.l.l.l.c.l.c.l.c.p.<.H h h v.v.l l l h v.v.v.",
"v.v.v.h d 3.k.c.c.l.l.c.c.l.c.l.c.c.l.i.,.G h d v.v.h d h v.v.v.",
"v.v.v.s s 1.l.k.l.l.l.l.l.k.l.k.k.l.k.l.u.;.D s d v.v.s f v.v.v.",
"v.v.v.s s >.k.k.k.k.k.k.k.k.k.k.k.k.k.k.k.u.*.A s s v.v.v.v.v.v.",
"v.v.v.u p >.k.h.k.h.h.k.k.k.h.k.k.h.k.h.h.k.r.&.Z u u v.v.v.v.v.",
"v.v.v.u u *.h.h.h.h.h.h.h.h.h.h.h.h.h.h.h.h.h.w.+.C u u v.v.v.v.",
"v.v.v.y u *.d.k.d.h.h.d.h.d.h.h.h.d.h.h.d.h.h.h.q.+.M y u v.v.v.",
"v.v.v.y y %.d.d.B B B B B d.d.B N V V V N B B B d.9...r r v.v.v.",
"v.v.v.q q #.d.a.v v v v v d.d.v U I P U U U U v d.a.%.w w v.v.v.",
"v.v.v.q q o.a.a.a.a.a.a.a.a.a.j ` S 7 _ ` ` ` j a.a.o.w w v.v.v.",
"v.v.v.0 0 o.p.p.p.p.p.p.p.p.p.s Y 3 3 F Y 6 ) s p.p.o.9 9 v.v.v.",
"v.v.v.2 1  .p.y.0 0 0 0 1 i.i.i 4           5 u i.i.X.2 2 v.v.v.",
"v.v.v.1 1 | u.u.1 1 1 1 1 u.u.y y y y y y y r y y.y.} < 2 v.v.v.",
"v.v.v.1 1 } u.r.u.r.u.r.u.u.u.r.r.u.r.r.r.u.u.r.r.y.} < 1 v.v.v.",
"v.v.v.: < { r.r.r.r.r.r.r.w.r.w.r.r.r.r.r.r.r.r.r.r.{ < < v.v.v.",
"v.v.v.: : [ w.r.< < < < < < < < < < < < < < < < r.w.[ ; ; v.v.v.",
"v.v.v.; ; ' w.w.; ; ; ; ; ; ; ; ; ; ; ; ; ; ; ; w.w.' ; ; v.v.v.",
"v.v.v.= * ' w.w.w.w.w.w.w.w.w.w.w.w.w.w.w.w.w.w.w.w.' = = v.v.v.",
"v.v.v.* * / 9.w.9.w.9.9.9.w.9.w.w.w.w.9.w.9.w.9.w.w./ * * v.v.v.",
"v.v.v.* # ! 9.9.+ + + + + + @ + + + + + 9.9.9.9.9.9.~ # * v.v.v.",
"v.v.v.# # Q 9.9.o . o o o o o X o o o X 9.9.9.9.9.9.Q # # v.v.v.",
"v.v.v.@ @ W 9.9.9.9.6.9.9.9.5.9.9.9.9.6.9.6.9.9.9.9.E @ @ v.v.v.",
"v.v.v.@ + E 4.9.6.9.6.9.3.9.6.6.9.3.9.3.9.6.6.9.9.3.E + @ v.v.v.",
"v.v.v.o o E 3.3.6.6.6.6.6.6.3.5.3.3.3.9.6.6.6.6.6.4.E o o v.v.v.",
"v.v.v.o o T T T T T T T T T T T T T T T T T T T T T T o o v.v.v.",
"v.v.v.X X X X X X X X X X X X X X . . . X X X X X X X X X v.v.v.",
"v.v.v.v.. . . . . . . . . X . . . . . . . . . . . . . . v.v.v.v."
};
