/* XPM */
static char *libreoffice_math[] = {
/* columns rows colors chars-per-pixel */
"32 32 130 2 ",
"   c gray20",
".  c #343434",
"X  c #353535",
"o  c #373737",
"O  c #393939",
"+  c #3A3A3A",
"@  c #3C3C3C",
"#  c #3E3E3E",
"$  c #3F3F3F",
"%  c #414141",
"&  c gray26",
"*  c #434343",
"=  c #444444",
"-  c #464646",
";  c gray28",
":  c #484848",
">  c #494949",
",  c gray29",
"<  c #4B4B4B",
"1  c #4C4C4C",
"2  c gray30",
"3  c #4E4E4E",
"4  c gray31",
"5  c #505050",
"6  c #515151",
"7  c #535353",
"8  c #555555",
"9  c #565656",
"0  c gray34",
"q  c #585858",
"w  c gray35",
"e  c #5A5A5A",
"r  c #5B5B5B",
"t  c gray36",
"y  c #5D5D5D",
"u  c gray37",
"i  c #5F5F5F",
"p  c #606060",
"a  c #626262",
"s  c gray39",
"d  c #646464",
"f  c #656565",
"g  c DimGray",
"h  c gray42",
"j  c #6D6D6D",
"k  c gray46",
"l  c #777777",
"z  c #797979",
"x  c #7C7C7C",
"c  c gray49",
"v  c #F09E6F",
"b  c #808080",
"n  c gray51",
"m  c #848484",
"M  c gray53",
"N  c #898989",
"B  c gray54",
"V  c #8E8E8E",
"C  c gray57",
"Z  c #939393",
"A  c gray58",
"S  c gray59",
"D  c #9A9A9A",
"F  c #9D9D9D",
"G  c gray65",
"H  c gray68",
"J  c gray69",
"K  c gray70",
"L  c #B4B4B4",
"P  c #B6B6B6",
"I  c gray72",
"U  c gray73",
"Y  c #BBBBBB",
"T  c #BCBCBC",
"R  c gray74",
"E  c gray",
"W  c gray75",
"Q  c #C0C0C0",
"!  c #C1C1C1",
"~  c #C3C3C3",
"^  c #C5C5C5",
"/  c gray78",
"(  c gray79",
")  c #CBCBCB",
"_  c #CDCDCD",
"`  c #CECECE",
"'  c gray81",
"]  c #D0D0D0",
"[  c gray82",
"{  c #D2D2D2",
"}  c gray83",
"|  c #D5D5D5",
" . c gray84",
".. c #D8D8D8",
"X. c gray85",
"o. c #DADADA",
"O. c gainsboro",
"+. c #DDDDDD",
"@. c gray87",
"#. c #DFDFDF",
"$. c gray88",
"%. c #E1E1E1",
"&. c #E2E2E2",
"*. c gray89",
"=. c #E4E4E4",
"-. c gray90",
";. c #E6E6E6",
":. c #E7E7E7",
">. c gray91",
",. c #E9E9E9",
"<. c #EAEAEA",
"1. c gray92",
"2. c #ECECEC",
"3. c #EEEEEE",
"4. c #EFEFEF",
"5. c gray94",
"6. c #F1F1F1",
"7. c gray95",
"8. c #F3F3F3",
"9. c #F4F4F4",
"0. c gray96",
"q. c #F6F6F6",
"w. c gray97",
"e. c #F8F8F8",
"r. c #F9F9F9",
"t. c gray98",
"y. c #FBFBFB",
"u. c gray99",
"i. c #FDFDFD",
"p. c None",
/* pixels */
"p.p.p.p.d d d d d d g d d g d d d d p.p.p.d d d d g d d d p.p.p.",
"p.p.p.d d d d d p p d p p d d p d d d p.p.d d d p d d d d p.p.p.",
"p.p.p.p p ;.;.;.;.;.$.;.;.;.;.;.$.N d p p.p.p p d p d p d p.p.p.",
"p.p.p.p i ;.t.t.i.t.i.t.i.t.t.t.5.$.N p p p.p.p p p p p p p.p.p.",
"p.p.p.i i $.t.t.t.t.t.t.t.t.t.t.i.3.+.m i i p.p.i i i i p p.p.p.",
"p.p.p.i i +.t.t.w.t.t.t.t.w.t.t.t.t.3.+.b i i p.p.i i i i p.p.p.",
"p.p.p.q i +.t.w.t.t.t.t.t.w.t.w.t.t.t.3.o.b i q p.p.i q i p.p.p.",
"p.p.p.q 0 o.t.w.w.w.w.w.t.w.w.w.w.w.w.w.<. .x q q p.p.q q p.p.p.",
"p.p.p.q 0 o.w.w.w.w.w.w.w.w.5.w.w.w.w.w.w.<. .c q q p.p.p.p.p.p.",
"p.p.p.0 0 o.5.w.w.5.5.w.w.w.w.w.w.5.w.w.5.w.;.{ x 0 0 p.p.p.p.p.",
"p.p.p.0 0  .5.w.w.5.w.5.w.5.w.5.5.w.w.5.w.5.w.;._ x 6 0 p.p.p.p.",
"p.p.p.6 6 { w.5.5.w.5.w.5.w.5.w.w.5.5.w.5.w.5.w.;._ k 6 6 p.p.p.",
"p.p.p.6 6 { 5.w.v v v v v v v v v v v v v v v v w.$._ 6 6 p.p.p.",
"p.p.p.6 1 { 5.5.v i.t.i.i.i.i.i.t.t.i.i.i.i.i.v 5.5.{ 6 6 p.p.p.",
"p.p.p.1 6 _ 5.3.v i.i.i.t.i.C 1 6 1 1 6 6 1 i.v 3.3.{ 1 1 p.p.p.",
"p.p.p.1 1 _ 3.3.v t.t.t.i.t.d H <.<.<.<.<.1 t.v 3.3._ 1 1 p.p.p.",
"p.p.p.: 1 ( <.<.v t.i.t.t.<.1 +.i.t.t.i.t.t.t.v 3.<.( 1 : p.p.p.",
"p.p.p.: : ( <.<.v t.t.t.t.Q 0 w.w.t.t.t.w.w.t.v <.<.( : : p.p.p.",
"p.p.p.; : ( <.<.v : :  .t.C c D d <.t.<.d F w.v <.<.^ ; : p.p.p.",
"p.p.p.; ; ^ <.;.v t.g V t.g G ;.d p o.p d ;.w.v ;.<.^ ; : p.p.p.",
"p.p.p.; & Q ;.;.v w.H 1 $.; { w.;.i : i ;.w.w.v ;.;.Q ; ; p.p.p.",
"p.p.p.& ; Q ;.;.v w.5.1 c : 5.t.;.i ; i ;.w.w.v ;.;.Q & & p.p.p.",
"p.p.p.& & W ;.;.v w.w.N & j w.;.i i  .p i ;.w.v ;.;.Q & & p.p.p.",
"p.p.p.# # W $.$.v w.w.{ & A w.C q ;.w.$.i C w.v ;.$.W # # p.p.p.",
"p.p.p.# # I ;.$.v w.5.w.5.w.w.3.3.w.5.w.5.3.w.v $.;.W # # p.p.p.",
"p.p.p.# # I $.;.v v v v v v v v v v v v v v v v ;.$.I # + p.p.p.",
"p.p.p.+ + I $.;.$.;.;.$.$.;.$.;.$.$.$.;.$.$.$.;.$.;.P + + p.p.p.",
"p.p.p.+ + P $.$.$.$.$.$.$.$.$.$.$.$.$.;.$.$.$.$.$.$.P + + p.p.p.",
"p.p.p.o + K +.$.+.$.$.$.$.$.$.+.$.+.$.$.+.$.$.$.$.$.K o o p.p.p.",
"p.p.p.  o K K K K K K K K K K K P P K P K K K K K K K   o p.p.p.",
"p.p.p.o o   o   o       o     o       o o       o     o o p.p.p.",
"p.p.p.p.                                                p.p.p.p."
};
