/* XPM */
static char *libreoffice_draw[] = {
/* columns rows colors chars-per-pixel */
"32 32 206 2 ",
"   c #A94B13",
".  c #A94B14",
"X  c #AA4C15",
"o  c #AC4D16",
"O  c #AD5019",
"+  c #AD501A",
"@  c #876900",
"#  c #886A00",
"$  c #8A6B00",
"%  c #8C6D00",
"&  c #8E6F00",
"*  c #8B6D04",
"=  c #8C6E06",
"-  c #906B08",
";  c #906E09",
":  c #907000",
">  c #917000",
",  c #937200",
"<  c #957400",
"1  c #977500",
"2  c #997700",
"3  c #9B7900",
"4  c #9D7A00",
"5  c #9F7C00",
"6  c #90700A",
"7  c #907411",
"8  c #927615",
"9  c #997915",
"0  c #9D7E17",
"q  c #A17D00",
"w  c #A27D00",
"e  c #A47F00",
"r  c #A37B1F",
"t  c #B96E42",
"y  c #BA7045",
"u  c #BB7247",
"i  c #349402",
"p  c #379706",
"a  c #3B990B",
"s  c #3B9B0A",
"d  c #3A9B0B",
"f  c #3E9B0E",
"g  c #3A9C0F",
"h  c #3E9E0C",
"j  c #3FA31D",
"k  c #4BA21E",
"l  c #4CA31F",
"z  c #4FAE19",
"x  c #50AF1A",
"c  c #41A622",
"v  c #4FB126",
"b  c #4BB33B",
"n  c #A68100",
"m  c #A88200",
"M  c #AA8400",
"N  c #AC8600",
"B  c #AD8701",
"V  c #AE8700",
"C  c #B08900",
"Z  c #B28B00",
"A  c #B48C00",
"S  c #B58C00",
"D  c #B78E00",
"F  c #B98F00",
"G  c #B99000",
"H  c #BB9100",
"J  c #BC9200",
"K  c #BD9300",
"L  c #BE9300",
"P  c #BF9400",
"I  c #9F8733",
"U  c #A38521",
"Y  c #B99D37",
"T  c #BB9E38",
"R  c #BDA03A",
"E  c #C09500",
"W  c #C19600",
"Q  c #C29600",
"!  c #C39800",
"~  c #C49800",
"^  c #C59900",
"/  c #C69900",
"(  c #C89B00",
")  c #C99C00",
"_  c #C6A63B",
"`  c #C1A33C",
"'  c #C2A43D",
"]  c #C5A73F",
"[  c #C48D48",
"{  c #CE8E4F",
"}  c #D68353",
"|  c #C7A940",
" . c #C9AA42",
".. c #CBAD44",
"X. c #CDAF45",
"o. c #C7A94A",
"O. c #CCB055",
"+. c #D8B957",
"@. c #D88F64",
"#. c #DD9962",
"$. c #DA976F",
"%. c #C48F70",
"&. c #CA9779",
"*. c #E9A279",
"=. c #F2A77C",
"-. c #F2A77D",
";. c #F2A87D",
":. c #8FC464",
">. c #94C96A",
",. c #E2C053",
"<. c #F6D05B",
"1. c #F6D15D",
"2. c #F6D25F",
"3. c #E8C760",
"4. c #F6D261",
"5. c #F7D363",
"6. c #F7D467",
"7. c #F7D568",
"8. c #F8D66C",
"9. c #E9CE77",
"0. c #F8D773",
"q. c #F8D874",
"w. c #F8DA79",
"e. c #F8DA7B",
"r. c #BFB388",
"t. c gray70",
"y. c #B4B4B4",
"u. c #B6B6B6",
"i. c gray72",
"p. c gray73",
"a. c #BBBBBB",
"s. c #BCBCBC",
"d. c gray74",
"f. c gray",
"g. c gray75",
"h. c #EAA780",
"j. c #F2AA80",
"k. c #F2AB80",
"l. c #F2AB81",
"z. c #F4B18A",
"x. c #EEB797",
"c. c #F4B590",
"v. c #F5BA96",
"b. c #F2BA99",
"n. c #D6BDAE",
"m. c #DCC3B4",
"M. c #DEC5B6",
"N. c #C0C0C0",
"B. c #C1C1C1",
"V. c #C3C3C3",
"C. c #C5C5C5",
"Z. c gray78",
"A. c gray79",
"S. c #CBCBCB",
"D. c #CDCDCD",
"F. c #CECECE",
"G. c gray81",
"H. c #D1CFCA",
"J. c #D3D2CD",
"K. c #D4D3CE",
"L. c #D0D0D0",
"P. c gray82",
"I. c #D2D2D2",
"U. c #D7D5D1",
"Y. c gray83",
"T. c gray84",
"R. c #D9D7D3",
"E. c #DBD9D5",
"W. c #D8D8D8",
"Q. c #DADADA",
"!. c #DDDCD8",
"~. c #DFDEDA",
"^. c gainsboro",
"/. c gray87",
"(. c #DFDFDF",
"). c #E0DED9",
"_. c #E1E0DD",
"`. c #E3E2DE",
"'. c gray88",
"]. c #E1E1E1",
"[. c #E2E2E2",
"{. c gray89",
"}. c #E5E4E0",
"|. c #E4E4E4",
" X c #E5E4E4",
".X c gray90",
"XX c #E6E6E6",
"oX c #E7E7E7",
"OX c #E9E9E9",
"+X c #EAEAEA",
"@X c gray92",
"#X c #ECECEC",
"$X c #EEEEEE",
"%X c #EFEFEF",
"&X c gray94",
"*X c #F1F1F1",
"=X c gray95",
"-X c #F3F3F3",
";X c #F4F4F4",
":X c gray96",
">X c #F6F6F6",
",X c #F8F8F8",
"<X c #F9F9F9",
"1X c gray98",
"2X c #FBFBFB",
"3X c None",
/* pixels */
"3X3X3X3X( ( ( ( / ( ( ( ( ( ( ( ( ( 3X3X3X) ( ( ( ( ( ( ( 3X3X3X",
"3X3X3X/ / / / / / / / / / / / / / / / 3X3X/ / / / / / / / 3X3X3X",
"3X3X3X! ! .X.X.X.X.X.X|..X.X.X.X}.X.! ! 3X3XW / / ~ ~ ~ / 3X3X3X",
"3X3X3XW W {.2X2X2X2X2X2X2X2X2X2X&X`...W W 3X3XW W W W W W 3X3X3X",
"3X3X3XW P {.2X2X2X,X2X2X,X2X,X2X2X$X). .P P 3X3XW W K W W 3X3X3X",
"3X3X3XK K (.2X>X2X,X,X,X,X2X,X2X,X2X$X~.| P P 3X3XK K K K 3X3X3X",
"3X3X3XG G (.>X2X2X,X,X2X2X,X2X,X2X2X2X$X!.| G G 3X3XK K K 3X3X3X",
"3X3X3XF F Q.2X>X,X,X,X,X,X>X,X>X>X>X>X>X@XE.' D F 3X3XG F 3X3X3X",
"3X3X3XD D Q.>X>X>X>X>X>X>X>X>X>X>X>X>X>X>XOXR.` F D 3X3X3X3X3X3X",
"3X3X3XD A W.>X;X>X;X;X>X>X>X;X>X;X>X>X>X>X>X.XR.T A D 3X3X3X3X3X",
"3X3X3XZ Z T.;X;X;X;X;X;X>X-X-X>X=X>X>X=X=X>X;X.XU.T Z Z 3X3X3X3X",
"3X3X3XZ Z Y.-X-X-X-X-X=X=X;X=X=X=X=X=X;X=X=X=X=X|.J.T V Z 3X3X3X",
"3X3X3XN V I.=X=X=X=XM.u o X u M.=X=X=X=X=X=X=X=X=X{.J.V N 3X3X3X",
"3X3X3XN N I.&X&X&X&.+ $.x.x.$.+ &.=X=X$X=X=X&X=X$X=XI.N N 3X3X3X",
"3X3X3XM m D.&X&Xm.+ b.v.z.z.v.b.+ m.$X$X$X&X%X%X$X%XD.M M 3X3X3X",
"3X3X3Xm m D.$X$Xt @.c.l.l a k c.; @ @ # @ @ # 8 $X$XD.m m 3X3X3X",
"3X3X3Xn n S.#X#X. h.l.;.f >.a l.@ ) ) ) ) ) ) # #X#XS.n n 3X3X3X",
"3X3X3Xn n A.+X+X  *.;.#.p v a [ @ ( ) ) ) ) ) # OXOXA.e e 3X3X3X",
"3X3X3Xq q Z.+XOXt } ;.r O.w.9.6 # ) ) ) ) ) ( @ OXOXZ.q q 3X3X3X",
"3X3X3X5 5 C.XXXXn.o { 9 w.6.q.o.= ) ) ) ) ( ( @ oXoXC.q q 3X3X3X",
"3X3X3X4 4 V.XXXX.X%.- +.7.4.5.0.0 N ( ) ) ) ( # .XoXV.4 4 3X3X3X",
"3X3X3X3 3 B..X.X.Xr.U 8.4.1.4.4.,.= # # # # # 8 .X.XN.3 3 3X3X3X",
"3X3X3X2 2 g..X.X).7 ,.1.<.<.<.<.6._ I .X.X.X.X.X.X.XN.2 2 3X3X3X",
"3X3X3X1 1 f.|.|.j f x 1.1.1.1.1.2.x s c |.|.|.|..X.Xf.1 1 3X3X3X",
"3X3X3X1 < p.|.{.g :.i @ @ @ @ @ @ i :.g {.{.{.{.|.{.f.< < 3X3X3X",
"3X3X3X, , p.{.{.b b b {.{.{.{.{.{.b b b {.{.{.{.{.{.p.< , 3X3X3X",
"3X3X3X, : i.{.{.{.'.{.{.{.{.{.{.{.'.{.{.{.'.{.{.{.{.u.% , 3X3X3X",
"3X3X3X% % u.'.'.{.'.(.{.'.'.'.'.{.'.'.'.{.'.'.{.'.{.u.% % 3X3X3X",
"3X3X3X% % t.{.(.{.(.(.'.'.(.(.{.'.'.'.'.'.'.'.'.{.).u.% % 3X3X3X",
"3X3X3X# % t.t.t.t.t.t.t.t.t.t.t.t.t.t.t.t.y.t.t.t.t.t.# # 3X3X3X",
"3X3X3X# # # @ @ # # # # @ # # # @ @ @ @ # # # @ @ @ # # # 3X3X3X",
"3X3X3X3X@ @ @ @ @ @ @ @ @ @ @ @ @ @ @ @ @ @ @ @ @ @ @ # 3X3X3X3X"
};
